<svg width="107" height="40" viewBox="0 0 107 40" fill="none" xmlns="http://www.w3.org/2000/svg">
<rect x="1" y="1" width="105" height="38" rx="7" fill="#27AE60"/>
<path d="M21.1186 25.5H22.6548V21.9205H24.7429C27.1044 21.9205 28.2727 20.4936 28.2727 18.6143C28.2727 16.7401 27.1143 15.3182 24.7479 15.3182H21.1186V25.5ZM22.6548 20.6179V16.6357H24.5838C26.1051 16.6357 26.7266 17.4609 26.7266 18.6143C26.7266 19.7678 26.1051 20.6179 24.6037 20.6179H22.6548ZM33.1499 25.6541C34.8153 25.6541 35.9936 24.8338 36.3317 23.5909L34.9247 23.3374C34.6562 24.0582 34.0099 24.4261 33.1648 24.4261C31.892 24.4261 31.0369 23.6009 30.9972 22.1293H36.4261V21.6023C36.4261 18.843 34.7756 17.7642 33.0455 17.7642C30.9176 17.7642 29.5156 19.3849 29.5156 21.7315C29.5156 24.103 30.8977 25.6541 33.1499 25.6541ZM31.0021 21.0156C31.0618 19.9318 31.8473 18.9922 33.0554 18.9922C34.2088 18.9922 34.9645 19.8473 34.9695 21.0156H31.0021ZM43.7978 19.728C43.4895 18.5398 42.5598 17.7642 40.9093 17.7642C39.1841 17.7642 37.9611 18.674 37.9611 20.0263C37.9611 21.1101 38.6174 21.831 40.0492 22.1491L41.3418 22.4325C42.0776 22.5966 42.4206 22.9247 42.4206 23.402C42.4206 23.9936 41.7892 24.456 40.8148 24.456C39.9249 24.456 39.3532 24.0732 39.1742 23.3224L37.7374 23.5412C37.986 24.8935 39.1096 25.6541 40.8248 25.6541C42.6692 25.6541 43.9469 24.6747 43.9469 23.2926C43.9469 22.2138 43.2608 21.5476 41.8588 21.2244L40.6458 20.946C39.8056 20.7472 39.4426 20.4638 39.4476 19.9467C39.4426 19.3601 40.079 18.9425 40.9242 18.9425C41.8489 18.9425 42.2765 19.4545 42.4505 19.9666L43.7978 19.728ZM52.2234 28.3636V17.8636H50.7717V19.1016H50.6474C50.3839 18.6293 49.8718 17.7642 48.4549 17.7642C46.6104 17.7642 45.2482 19.2209 45.2482 21.6967C45.2482 24.1676 46.5906 25.6491 48.44 25.6491C49.832 25.6491 50.3789 24.799 50.6474 24.3118H50.7369V28.3636H52.2234ZM50.7667 21.6818C50.7667 23.2876 50.0508 24.3814 48.7731 24.3814C47.4457 24.3814 46.7496 23.2131 46.7496 21.6818C46.7496 20.1655 47.4258 19.027 48.7731 19.027C50.0707 19.027 50.7667 20.0859 50.7667 21.6818ZM59.0593 22.3331C59.0643 23.6307 58.0998 24.2472 57.2646 24.2472C56.3448 24.2472 55.7085 23.581 55.7085 22.5419V17.8636H54.2219V22.7209C54.2219 24.6151 55.261 25.5994 56.7276 25.5994C57.8761 25.5994 58.6566 24.9929 59.0096 24.1776H59.0891V25.5H60.5508V17.8636H59.0593V22.3331ZM62.5481 25.5H64.0346V17.8636H62.5481V25.5ZM63.2988 16.6854C63.8109 16.6854 64.2385 16.2876 64.2385 15.8004C64.2385 15.3132 63.8109 14.9105 63.2988 14.9105C62.7818 14.9105 62.3592 15.3132 62.3592 15.8004C62.3592 16.2876 62.7818 16.6854 63.2988 16.6854ZM71.7567 19.728C71.4485 18.5398 70.5188 17.7642 68.8683 17.7642C67.1431 17.7642 65.9201 18.674 65.9201 20.0263C65.9201 21.1101 66.5763 21.831 68.0082 22.1491L69.3008 22.4325C70.0366 22.5966 70.3796 22.9247 70.3796 23.402C70.3796 23.9936 69.7482 24.456 68.7738 24.456C67.8839 24.456 67.3121 24.0732 67.1332 23.3224L65.6964 23.5412C65.945 24.8935 67.0685 25.6541 68.7837 25.6541C70.6282 25.6541 71.9059 24.6747 71.9059 23.2926C71.9059 22.2138 71.2198 21.5476 69.8178 21.2244L68.6048 20.946C67.7646 20.7472 67.4016 20.4638 67.4066 19.9467C67.4016 19.3601 68.038 18.9425 68.8832 18.9425C69.8079 18.9425 70.2354 19.4545 70.4094 19.9666L71.7567 19.728ZM75.7626 25.669C77.0254 25.669 77.7363 25.0277 78.0197 24.456H78.0794V25.5H79.5311V20.429C79.5311 18.2067 77.7811 17.7642 76.568 17.7642C75.1859 17.7642 73.9132 18.321 73.416 19.7131L74.813 20.0312C75.0318 19.4893 75.5886 18.9673 76.5879 18.9673C77.5474 18.9673 78.0396 19.4695 78.0396 20.3345V20.3693C78.0396 20.9112 77.4828 20.9013 76.1106 21.0604C74.6639 21.2294 73.1824 21.6072 73.1824 23.3423C73.1824 24.8438 74.3109 25.669 75.7626 25.669ZM76.0858 24.4759C75.2456 24.4759 74.639 24.098 74.639 23.3622C74.639 22.5668 75.345 22.2834 76.2051 22.169C76.6873 22.1044 77.8308 21.9751 78.0446 21.7614V22.7457C78.0446 23.6506 77.3237 24.4759 76.0858 24.4759ZM81.511 25.5H82.9975V20.8366C82.9975 19.8374 83.7681 19.1165 84.8221 19.1165C85.1303 19.1165 85.4783 19.1712 85.5977 19.206V17.7841C85.4485 17.7642 85.1552 17.7493 84.9663 17.7493C84.0714 17.7493 83.3058 18.2564 83.0273 19.0767H82.9478V17.8636H81.511V25.5Z" fill="white"/>
<rect x="1" y="1" width="105" height="38" rx="7" stroke="#27AE60" stroke-width="2"/>
</svg>
